<?xml version="1.0" encoding="utf-8"?>
<!-- Generator: Adobe Illustrator 16.0.0, SVG Export Plug-In . SVG Version: 6.00 Build 0)  -->
<!DOCTYPE svg PUBLIC "-//W3C//DTD SVG 1.1//EN" "http://www.w3.org/Graphics/SVG/1.1/DTD/svg11.dtd">
<svg version="1.1" xmlns="http://www.w3.org/2000/svg" xmlns:xlink="http://www.w3.org/1999/xlink" x="0px" y="0px"
	 width="228.23px" height="256.231px" viewBox="0 0 228.23 256.231" enable-background="new 0 0 228.23 256.231"
	 xml:space="preserve">
<g id="Layer_2">
</g>
<g id="Layer_1">
	<path fill="#0FD186" d="M228.23,50.593c0-25.008-20.27-45.277-45.271-45.277L45.27,27.994C20.262,27.994,0,48.264,0,73.272v137.686
		c0,25.002,20.262,45.273,45.27,45.273h137.689c25.002,0,45.271-20.271,45.271-45.273 M175.027,226.54
		c-15.955,11.01-35.23,16.514-57.789,16.514c-32.488,0-62.484-11.695-90-35.094l29.402-29.727
		c18.195,19.547,39.191,29.313,62.938,29.313c9.109,0,17.537-1.926,25.27-5.771c9.672-4.662,14.486-11.104,14.486-19.355
		c0-12.074-8.807-19.764-26.432-23.066l-24.344-4.629c-21.75-4.135-37.852-9.361-48.301-15.689
		c-15.674-9.639-23.539-23.395-23.539-41.297c0-20.368,8.273-36.609,24.781-48.727C76.09,38,93.979,32.496,115.166,32.496
		c26.971,0,53.395,9.232,79.277,27.663l-24.449,30.137c-17.676-14.864-35.648-22.292-53.867-22.292
		c-8.842,0-16.848,1.939-24.025,5.784c-8.566,4.681-12.848,11.138-12.848,19.405c0,10.737,8.793,17.745,26.43,21.066l43.328,8.245
		c35.246,6.596,52.857,24.363,52.857,53.264C201.869,197.239,192.918,214.153,175.027,226.54z"/>
</g>
</svg>
