<svg xmlns="http://www.w3.org/2000/svg" viewBox="0 0 615.79 141.13"><defs><style>.a{fill:none;}.b{fill:#0fd186;}.c{fill:#0089ff;}</style></defs><title>sapo-support</title><path class="a" d="M178.18,72.08a22.77,22.77,0,0,0-7.78-5.28,25.35,25.35,0,0,0-9.87-1.91q-11.13,0-18.27,7.38t-7.14,18.67a23.24,23.24,0,0,0,7.4,17.44,25.92,25.92,0,0,0,30.57,3.78,22.91,22.91,0,0,0,8.79-9.13,28.77,28.77,0,0,0,1.31-23A24.2,24.2,0,0,0,178.18,72.08Z" transform="translate(-3.82 -19.88)"/><path class="a" d="M362,68.3a24.23,24.23,0,0,0-12.56-3.41,23.39,23.39,0,0,0-9.38,2.1A23.64,23.64,0,0,0,332,72.68a24.14,24.14,0,0,0-7,17.66,25.46,25.46,0,0,0,3.25,12.54,24.25,24.25,0,0,0,8.89,9.25,23.75,23.75,0,0,0,12.37,3.37,24.67,24.67,0,0,0,12.78-3.34,23.61,23.61,0,0,0,8.9-9.16,26.4,26.4,0,0,0-.08-25.38A24.38,24.38,0,0,0,362,68.3Z" transform="translate(-3.82 -19.88)"/><path class="a" d="M267,68.37a23.09,23.09,0,0,0-12.42-3.48,24.57,24.57,0,0,0-12.73,3.37,24.29,24.29,0,0,0-9,9.21,25.79,25.79,0,0,0-3.25,12.73q0,11.74,7.93,18.86a26.72,26.72,0,0,0,7.79,4.71,22.61,22.61,0,0,0,8.46,1.73,24.76,24.76,0,0,0,12.83-3.41,24.21,24.21,0,0,0,9.06-9.24A25.75,25.75,0,0,0,279,90a25.43,25.43,0,0,0-3.18-12.34A24.58,24.58,0,0,0,267,68.37Z" transform="translate(-3.82 -19.88)"/><path class="b" d="M114.72,86.71V41.88a22,22,0,0,0-22-22l-66.9,11a22,22,0,0,0-22,22V119.8a22,22,0,0,0,22,22h66.9a22,22,0,0,0,22-22V93.63c-.07-1.13-.11-2.27-.11-3.43S114.65,87.86,114.72,86.71ZM88.87,127.37q-11.64,8-28.08,8-23.68,0-43.73-17L31.34,103.9q13.26,14.23,30.58,14.24a27.18,27.18,0,0,0,12.28-2.81q7-3.39,7-9.4,0-8.81-12.84-11.21L56.57,92.47q-15.85-3-23.47-7.62-11.43-7-11.44-20.07,0-14.83,12.05-23.67,10.62-8,26.07-8,19.65,0,38.52,13.44L86.42,61.17Q73.54,50.33,60.25,50.33a24.44,24.44,0,0,0-11.68,2.81q-6.24,3.42-6.24,9.43,0,7.83,12.84,10.24l21.06,4q25.68,4.8,25.68,25.88Q101.91,118.35,88.87,127.37Z" transform="translate(-3.82 -19.88)"/><path class="c" d="M185.65,59.65a33.45,33.45,0,0,0-12.39-10.93A35.16,35.16,0,0,0,157.13,45a41.29,41.29,0,0,0-17.26,3.59,42,42,0,0,0-14.33,11.08,45.29,45.29,0,0,0-6.4,9.32,39.54,39.54,0,0,0-3.44,10.11,55.07,55.07,0,0,0-1,7.63v6.92a45.73,45.73,0,0,0,10.52,27.48A40.12,40.12,0,0,0,139,131.67a40.94,40.94,0,0,0,17.52,3.74,36.87,36.87,0,0,0,16.14-3.89,32.71,32.71,0,0,0,12.68-10.41h.3v11.53h18.79v-85H185.65ZM181.87,103a22.76,22.76,0,0,1-8.78,9.13,25.92,25.92,0,0,1-30.57-3.78,23.2,23.2,0,0,1-7.4-17.44q0-11.3,7.14-18.67t18.27-7.38a25.17,25.17,0,0,1,9.87,1.92,22.47,22.47,0,0,1,7.77,5.27,23.82,23.82,0,0,1,5,8,28.63,28.63,0,0,1-1.31,23Z" transform="translate(-3.82 -19.88)"/><path class="c" d="M114.61,90.2c0,1.16,0,2.3.11,3.43V86.71C114.65,87.86,114.61,89,114.61,90.2Z" transform="translate(-3.82 -19.88)"/><path class="c" d="M294,67.62a38.22,38.22,0,0,0-6.36-8.86,39.64,39.64,0,0,0-13.81-10.52,42.16,42.16,0,0,0-17-3.26q-18,0-27.25,13.78h-.38V47.68H210.5V161h20.36V123.43h.3q9.36,12,25.6,12a40.37,40.37,0,0,0,16.88-3.59,41.92,41.92,0,0,0,13.73-10,44.68,44.68,0,0,0,8.91-14.56,48,48,0,0,0,3.07-17.06A52.39,52.39,0,0,0,298,78.59,43.79,43.79,0,0,0,294,67.62Zm-18.23,35.22a24.17,24.17,0,0,1-9.06,9.25,24.85,24.85,0,0,1-12.83,3.41,22.81,22.81,0,0,1-8.46-1.73,26.59,26.59,0,0,1-7.79-4.71q-7.93-7.11-7.93-18.86a25.68,25.68,0,0,1,3.25-12.73,24.21,24.21,0,0,1,9-9.21,24.46,24.46,0,0,1,12.72-3.37A23.1,23.1,0,0,1,267,68.37a24.7,24.7,0,0,1,8.8,9.32A25.44,25.44,0,0,1,279,90,25.79,25.79,0,0,1,275.73,102.84Z" transform="translate(-3.82 -19.88)"/><path class="c" d="M391.53,72.87a45,45,0,0,0-23.75-24.33A43,43,0,0,0,350.36,45a45.92,45.92,0,0,0-32.52,13.14A45.06,45.06,0,0,0,308,72.57a44.52,44.52,0,0,0-3.55,17.78,43.58,43.58,0,0,0,6.1,22.45A45.61,45.61,0,0,0,327,129.31a43.49,43.49,0,0,0,22.44,6.1,45.59,45.59,0,0,0,17.42-3.4,45.71,45.71,0,0,0,24.54-24.3,44.3,44.3,0,0,0,3.44-17.36A46,46,0,0,0,391.53,72.87ZM371.14,103a23.61,23.61,0,0,1-8.9,9.16,24.67,24.67,0,0,1-12.78,3.34,23.75,23.75,0,0,1-12.37-3.37,24.25,24.25,0,0,1-8.89-9.25A25.46,25.46,0,0,1,325,90.34a24.14,24.14,0,0,1,7-17.66A23.64,23.64,0,0,1,340.08,67a23.39,23.39,0,0,1,9.38-2.1,24.57,24.57,0,0,1,21.6,12.73,26.4,26.4,0,0,1,.08,25.38Z" transform="translate(-3.82 -19.88)"/><path class="c" d="M396.81,124h5a6.28,6.28,0,0,0,1.85,4.86,6.4,6.4,0,0,0,4.79,2,6.56,6.56,0,0,0,4.56-1.71,5.66,5.66,0,0,0,1.87-4.39q0-5-7.1-7a16.69,16.69,0,0,1-6.64-3.22,9.1,9.1,0,0,1-3-7,9.66,9.66,0,0,1,3.09-7.34,10.47,10.47,0,0,1,7.5-2.92,9.86,9.86,0,0,1,7.11,3,9.43,9.43,0,0,1,3,7h-5a4.72,4.72,0,0,0-1.61-3.75,6,6,0,0,0-4.08-1.41,4.94,4.94,0,0,0-3.59,1.48,5.2,5.2,0,0,0,.5,7.77,15.32,15.32,0,0,0,4.43,2,19.33,19.33,0,0,1,7.17,3.55A8.91,8.91,0,0,1,419.8,124a11.2,11.2,0,0,1-3.35,8.41,11.7,11.7,0,0,1-8.51,3.25,10.79,10.79,0,0,1-8.05-3.48A10.51,10.51,0,0,1,396.81,124Z" transform="translate(-3.82 -19.88)"/><path class="c" d="M454.72,98.13v36.66H450v-5.7h-.13q-3.22,6.57-12,6.57-7.11,0-12.87-6.57-2.61-2.94-2.61-11.59V98.13h4.95V117.5c0,3.57.54,6.28,1.61,8.11q3.09,5.29,9.59,5.29a10.51,10.51,0,0,0,9-4.49c1.48-2,2.21-5,2.21-8.91V98.13Z" transform="translate(-3.82 -19.88)"/><path class="c" d="M459.82,98.13h4.69v6.3h.27a13.44,13.44,0,0,1,6.27-5.36,19.52,19.52,0,0,1,8.15-1.75q8,0,14.95,7.11a14.6,14.6,0,0,1,2.94,4.89,19.83,19.83,0,0,1,1.4,7.31,17.79,17.79,0,0,1-5.89,13.54,19.85,19.85,0,0,1-14,5.49,17.14,17.14,0,0,1-8.07-1.94,12,12,0,0,1-5.72-5.77v19.71h-5Zm19,32.77a14.56,14.56,0,0,0,10.45-4.09,13.56,13.56,0,0,0,4.29-10.25,14,14,0,0,0-4.22-10.22,13.83,13.83,0,0,0-10.19-4.26,14.64,14.64,0,0,0-10.39,4,13.22,13.22,0,0,0-4.29,10.06,14.3,14.3,0,0,0,14.35,14.74Z" transform="translate(-3.82 -19.88)"/><path class="c" d="M502.18,98.13h4.69v6.3h.27a13.44,13.44,0,0,1,6.27-5.36,19.52,19.52,0,0,1,8.15-1.75q8,0,15,7.11a14.6,14.6,0,0,1,2.94,4.89,19.83,19.83,0,0,1,1.4,7.31A17.79,17.79,0,0,1,535,130.17a19.85,19.85,0,0,1-14,5.49,17.17,17.17,0,0,1-8.07-1.94,12,12,0,0,1-5.72-5.77v19.71h-5Zm19,32.77a14.56,14.56,0,0,0,10.45-4.09,13.56,13.56,0,0,0,4.29-10.25,14,14,0,0,0-4.22-10.22,13.83,13.83,0,0,0-10.19-4.26,14.64,14.64,0,0,0-10.39,4,13.22,13.22,0,0,0-4.29,10.06,14.3,14.3,0,0,0,14.35,14.74Z" transform="translate(-3.82 -19.88)"/><path class="c" d="M562.37,97.32A18.4,18.4,0,0,1,575.71,103a18.09,18.09,0,0,1,5.69,13.27,19,19,0,0,1-5.56,13.68,18,18,0,0,1-13.47,5.76,18.71,18.71,0,0,1-13.54-5.56,18.06,18.06,0,0,1-5.7-13.41,18.77,18.77,0,0,1,5.6-13.7A18.44,18.44,0,0,1,562.37,97.32Zm0,4.76a13.54,13.54,0,0,0-10.16,4.29,14.35,14.35,0,0,0-4.12,10.32,13.65,13.65,0,0,0,4.19,10.06,13.79,13.79,0,0,0,10.09,4.15,13.2,13.2,0,0,0,10-4.29,14.64,14.64,0,0,0,4-10.39,13.37,13.37,0,0,0-4.25-10.08A13.8,13.8,0,0,0,562.37,102.08Z" transform="translate(-3.82 -19.88)"/><path class="c" d="M585.09,134.79V98.13h4.69v5.29h.14q2.4-5.83,10.52-6.1v4.9a11.05,11.05,0,0,0-6.64,2.54,9.57,9.57,0,0,0-3.15,4.29,17.11,17.11,0,0,0-.6,5.23v20.51Z" transform="translate(-3.82 -19.88)"/><path class="c" d="M606.14,134.79V102.62H598.5V98.13h7.64V85.26h5V98.13h8.51v4.49H611.1v32.17Z" transform="translate(-3.82 -19.88)"/></svg>